<svg enable-background="new 0 0 125 23.1" viewBox="0 0 125 23.1" xmlns="http://www.w3.org/2000/svg"><path d="m25.1 11.4c0-6.3-5-11.4-11.4-11.4-4.3 0-8 2.3-9.9 5.8l5.5 5.5c0-2.4 2-4.4 4.4-4.4 2.5 0 4.4 2 4.4 4.4s-1.9 4.4-4.4 4.4h-9.5c-2.3 0-4.2 1.9-4.2 4.3v2.7h13.7c6.4 0 11.4-5.1 11.4-11.3" fill="#0dbdff"/><path d="m76.8 10h5.3c2.1 0 3.1-1 3.1-2.8s-1.1-2.8-3.1-2.8h-5.3zm3.1 4.4h-3.1v8.3h-4.8v-20.1c0-1.4 1.1-2.6 2.6-2.6h7.6c4.9 0 7.9 3 7.9 7.2 0 3.4-1.9 6-5.2 6.9l5.9 8.6h-5.7zm45.1 7.7c-.9.6-2 1-3.2 1-3.3 0-4.8-2.2-4.8-5.4v-16.5l4.5-1.1v17.6c0 .9.4 1.4 1.2 1.4.2 0 .5-.1.8-.2zm-7.9 0c-.9.6-2 1-3.2 1-3.3 0-4.8-2.2-4.8-5.4v-14.6l4.5-1.1v15.8c0 .9.4 1.4 1.2 1.4.2 0 .5-.1.8-.2zm-14.1-7.6c0-2.6-1.7-4.5-4.2-4.5s-4.2 1.8-4.2 4.5 1.7 4.5 4.2 4.5 4.2-1.8 4.2-4.5m-13 0c0-5.1 3.7-8.6 8.8-8.6s8.9 3.5 8.9 8.6-3.7 8.6-8.9 8.6c-5.1 0-8.8-3.5-8.8-8.6m-51.8-1 3.2-8.7 3.2 8.7zm-.2-11.9-8.3 21.1h5l1.8-4.8h9.8l1.8 4.8h5l-8.9-22.7h-3.8c-1.1 0-2 .6-2.4 1.6m23.2 17.4c-2.5 0-4.2-1.8-4.2-4.5s1.7-4.5 4.2-4.5 4.2 1.8 4.2 4.5-1.7 4.5-4.2 4.5m3.9-11c-1.1-1.3-2.8-2-4.8-2-4.4 0-7.9 3.5-7.9 8.6s3.5 8.7 7.8 8.7c2.3 0 4.1-1 5.2-2.7l.2 2.2h4v-22.8h-1.9c-1.4 0-2.6 1.1-2.6 2.6z" fill="#fff"/></svg>