<svg enable-background="new 0 0 94 122" viewBox="0 0 94 122" xmlns="http://www.w3.org/2000/svg"><path d="m8.1 89.9 39.5 20.1 38-20.1v-78.6h-77.5z" fill="#fff"/><path d="m86.4 11.6-79.1 79.7 41 20.3 38.1-19.5z" fill="#f2f3f2"/><path d="m5.5 37.5v54.1l1.4.7 39.5 20.1 1.2.6 1.2-.6 38.1-20.1 1.4-.7v-82.9h-82.8zm2.6 52.6v-78.8h77.6v78.8l-38.1 20.1z" fill="#dcdedc"/><path d="m46.9 12.6c.4 0 .8 0 1.2.1l-1.2 2.3c-1.8-.1-3.4 1.3-3.5 3.1s1.3 3.4 3.1 3.5h.4c.8 0 1.6-.3 2.2-.8l1.3 2.2c-1 .7-2.2 1.1-3.5 1.1-3.2.1-5.9-2.3-6-5.5s2.3-5.9 5.5-6zm4.1 4.9 1.5 2.5-1.5 2.4-1.4-2.4h-2.9l1.5-2.5zm-2.4-.9c0-.4.1-.8.3-1.1s.6-.6.9-.8l.2-.1c.4-.2.5-.3.5-.5s-.3-.4-.5-.4c-.4 0-.7.2-.9.6l-.5-.5c.1-.2.3-.4.5-.6.3-.2.6-.2.9-.2s.7.1.9.3.4.5.4.8c0 .5-.3.9-.9 1.1l-.3.2c-.3.2-.5.3-.6.6h1.8v.7s-2.7-.1-2.7-.1zm-1.7 12.5 9.5-5.4v-15h-19.1v14.9s9.6 5.5 9.6 5.5z" fill="#ff492c"/><path d="m90 78.7h-86.2l-2.9-7.3 2.9-7.3h86.2l2.9 7.3z" fill="#ff3100"/><path d="m19 85.9c.3.2.5.5.5.8s-.1.6-.3.7c-.3.2-.6.3-.9.2h-1.3s0 0-.1 0c0 0 0 0 0-.1v-3.3s0-.1.1-.1h1.3c.4 0 .7.1.9.2s.3.4.3.7c0 .5-.2.8-.5.9zm-1.3-.9v.6h.5c.1 0 .2 0 .3-.1s.1-.2.1-.2c0-.1 0-.2-.1-.3s-.2-.1-.3-.1l-.5.1c0-.1 0-.1 0 0 0-.1 0 0 0 0zm.9 1.9c.1-.1.1-.4 0-.5s-.2-.1-.3-.1h-.5v.7h.5c.1 0 .2 0 .3-.1zm3.9-2h-1.6v.6h1 .1v.1.5.1s0 0-.1 0h-1v.8h1.5s.1 0 .1.1v.5.1s0 0-.1 0h-2.3s0 0-.1 0c0 0 0 0 0-.1v-3.3s0 0 0-.1h.1 2.3s.1 0 .1.1v.6c.1 0 .1 0 0 0zm1.2 2.7c-.2-.1-.4-.2-.5-.4s-.2-.4-.2-.6v-.1s0-.1.1-.1h.6.1v.1c0 .1.1.2.2.3s.3.1.4.1.2 0 .3-.1.1-.1.1-.2 0-.2-.1-.2c-.1-.1-.3-.1-.4-.2h-.1c-.2-.1-.4-.1-.6-.2s-.3-.2-.4-.3c-.1-.2-.2-.3-.2-.5s.1-.4.2-.5c.1-.2.3-.3.5-.4s.4-.1.7-.1c.2 0 .5 0 .7.1s.4.2.5.4.2.4.2.6v.1s0 0-.1 0h-.6s0 0-.1 0c0-.1-.1-.2-.2-.3s-.3-.1-.4-.1-.2 0-.3.1-.1.1-.1.2 0 .1.1.2.1.1.2.1.2.1.5.2c.2.1.4.2.5.2.1.1.3.2.4.3.1.2.2.3.2.5s-.1.4-.2.6-.3.3-.5.4c-.6 0-1.1 0-1.5-.2zm5.1-3.4c0 .1 0 .1 0 0v.6.1s0 0-.1 0h-.8v2.7s0 .1-.1.1h-.7s0 0-.1 0c0 0 0 0 0-.1v-2.6h-.8s-.1 0-.1-.1v-.5s0 0 0-.1h.1l2.6-.1c-.1 0 0 0 0 0zm2.2 3.4c-.2-.1-.4-.2-.5-.4s-.2-.4-.2-.6v-.1s0-.1.1-.1h.6.1v.1c0 .1.1.2.2.3s.3.1.4.1.2 0 .3-.1.1-.1.1-.2 0-.2-.1-.2c-.1-.1-.3-.1-.4-.2h-.1c-.2-.1-.4-.1-.6-.2s-.3-.2-.4-.3c-.1-.2-.2-.3-.2-.5s.1-.4.2-.5c.1-.2.3-.3.5-.4s.4-.1.7-.1c.2 0 .5 0 .7.1s.4.2.5.4.2.4.2.6v.1s0 0-.1 0h-.6s0 0-.1 0c0-.1-.1-.2-.2-.3s-.3-.1-.4-.1-.2 0-.3.1-.1.1-.1.2 0 .1.1.2.1.1.2.1.2.1.5.2c.2.1.4.2.5.2.1.1.3.2.4.3.1.2.2.3.2.5s-.1.4-.2.6-.3.3-.5.4-.5.1-.7.1c-.4-.1-.6-.2-.8-.3zm3.1 0c-.2-.1-.4-.3-.5-.5s-.2-.4-.2-.7v-1c0-.2.1-.5.2-.7s.3-.4.5-.5c.5-.2 1-.2 1.4 0 .2.1.4.3.5.5s.2.4.2.7v1c0 .2-.1.5-.2.7s-.3.4-.5.5c-.4.2-.9.2-1.4 0zm1.1-.7c.1-.1.2-.3.1-.4v-1c0-.2 0-.3-.1-.4s-.2-.2-.4-.2c-.1 0-.3.1-.4.2s-.2.3-.1.4v1c0 .2 0 .3.1.4s.2.2.4.2.3-.1.4-.2zm4-2h-1.6v.6h1 .1v.1.5.1s0 0-.1 0h-1v1.3.1s0 0-.1 0h-.7s-.1 0-.1-.1v-3.3s0 0 0-.1h.1 2.3.1v.1.7c.1 0 .1 0 0 0zm3.1-.7c0 .1 0 .1 0 0v.6.1s0 0-.1 0h-.8v2.7.1s0 0-.1 0h-.7s0 0-.1 0c0 0 0 0 0-.1v-2.6h-.8s0 0-.1 0c0 0 0 0 0-.1v-.5s0-.1.1-.1l2.6-.1c-.1 0 0 0 0 0zm1.2 3.4-.9-3.3s0-.1.1-.1h.7.1v.1l.4 1.8.4-1.8c0-.1.1-.1.1-.1h.6s.1 0 .1.1l.4 1.8.4-1.8s0 0 0-.1h.1.7s.1 0 .1.1l-.8 3.3s-.1.1-.1.1h-.7s0 0-.1 0c0 0 0 0 0-.1l-.4-1.9-.4 1.9s0 .1-.1.1h-.6c-.1 0-.1 0-.1-.1zm5.4 0-.1-.4h-1.1l-.1.4s-.1.1-.1.1h-.7-.1v-.1l1-3.3s.1-.1.1-.1h.9s.1 0 .1.1l1.1 3.3s0 .1-.1.1l-.9-.1c.1.1 0 .1 0 0zm-1.1-1.1s0 .1 0 0c0 .1 0 .1 0 0h.8l-.4-1.3zm4.3 1.2-.6-1.3h-.3v1.3.1s0 0-.1 0h-.7s0 0-.1 0c0 0 0 0 0-.1v-3.3s0 0 0-.1h.1 1.5c.2 0 .4 0 .6.1s.3.2.4.4.1.4.1.6-.1.4-.2.6-.3.3-.5.4l.6 1.3s0 .1-.1.1h-.7c.1-.1.1-.1 0-.1zm-.9-2.7v.7h.5c.1 0 .2 0 .3-.1s.1-.2.1-.3 0-.2-.1-.3-.2-.1-.3-.1l-.5.1c0-.1 0-.1 0 0zm4.8-.1h-1.6v.6h1s.1 0 .1.1v.5s0 .1-.1.1h-1v.8h1.5.1v.1.5s0 .1-.1.1h-2.3s0 0-.1 0c0 0 0 0 0-.1v-3.3s0-.1.1-.1h2.3.1v.1zm3.9 2.7-.1-.4h-1.1l-.1.4s-.1.1-.1.1h-.7-.1v-.1l1.1-3.3s.1-.1.1-.1h.9s.1 0 .1.1l1.1 3.3s0 .1-.1.1l-1-.1c.1.1 0 .1 0 0zm-1.1-1.1s0 .1 0 0c0 .1 0 .1 0 0h.8l-.4-1.3zm2.6 1.1-.9-3.3s0-.1.1-.1h.7.1v.1l.4 1.8.4-1.8c0-.1.1-.1.1-.1h.6s.1 0 .1.1l.4 1.8.4-1.8s0 0 0-.1h.1.7s.1 0 .1.1l-.8 3.3s-.1.1-.1.1h-.7s0 0-.1 0c0 0 0 0 0-.1l-.4-1.9-.4 1.9s0 .1-.1.1l-.7-.1c0 .1 0 .1 0 0zm5.4 0-.1-.4h-1.1l-.1.4s-.1.1-.1.1h-.7-.1v-.1l1.1-3.3s.1-.1.1-.1h.9s.1 0 .1.1l1.1 3.3s0 .1-.1.1l-1-.1c.1.1 0 .1 0 0zm-1.1-1.1s0 .1 0 0c0 .1 0 .1 0 0h.8l-.4-1.3zm4.3 1.2-.6-1.3h-.3v1.3.1s0 0-.1 0h-.7s0 0-.1 0c0 0 0 0 0-.1v-3.3s0 0 0-.1h.1 1.5c.2 0 .4 0 .6.1s.3.2.4.4.1.4.1.6-.1.4-.2.6-.3.3-.5.4l.6 1.3s0 .1-.1.1h-.7c.1-.1 0-.1 0-.1zm-1-2.7v.7h.5c.1 0 .2 0 .3-.1s.1-.2.1-.3 0-.2-.1-.3-.2-.1-.3-.1l-.5.1c.1-.1 0-.1 0 0zm2.4 2.7v-3.4s0-.1.1-.1h1.3c.2 0 .5 0 .7.1s.4.2.5.4.2.4.2.6v1.3c0 .2-.1.4-.2.6s-.3.3-.5.4-.5.1-.7.1h-1.4c.1 0 .1 0 0 0zm.9-.7h.5c.1 0 .2 0 .3-.1s.1-.2.1-.4v-1c0-.1 0-.3-.1-.4s-.2-.1-.3-.1h-.5v2c-.1 0 0 0 0 0zm2.9.6c-.2-.1-.4-.2-.5-.4s-.2-.4-.2-.6v-.1s0-.1.1-.1h.6.1v.1c0 .1.1.2.2.3s.3.1.4.1.2 0 .3-.1.1-.1.1-.2 0-.2-.1-.2c-.1-.1-.3-.1-.4-.2h-.1c-.2-.1-.4-.1-.6-.2s-.3-.2-.4-.3c-.1-.2-.2-.3-.2-.5s.1-.4.2-.5c.1-.2.3-.3.5-.4s.4-.1.7-.1c.2 0 .5 0 .7.1s.4.2.5.4.2.4.2.6v.1s0 0-.1 0h-.6s0 0-.1 0c0-.1-.1-.2-.2-.3s-.3-.1-.4-.1-.2 0-.3.1-.1.1-.1.2 0 .1.1.2.1.1.2.1.2.1.5.2c.2.1.4.2.5.2.1.1.3.2.4.3.1.2.2.3.2.5s-.1.4-.2.6-.3.3-.5.4-.5.1-.7.1c-.3-.1-.6-.2-.8-.3zm-37 9.7c0 .1 0 .1 0 0h2.6.1v.1 1.2.1h-.1-4.7-.1v-.1-1.1c0-.1 0-.1.1-.1l1.6-1.6.6-.6c.6-.6.9-1.1.9-1.4 0-.2-.1-.4-.2-.5-.2-.1-.4-.2-.6-.2s-.4.1-.5.2-.2.3-.2.5v.2.1h-.1-1.6-.1v-.1-.5c0-.4.2-.7.4-1s.5-.5.9-.6c.4-.2.8-.2 1.2-.2s.9.1 1.3.3c.3.2.6.4.9.7.4.6.4 1.3.1 1.9-.2.3-.4.6-.6.9-.2.2-.4.5-.6.7s-.6.5-1 .9l-.3.2c-.1 0-.1 0 0 0zm4 1c-.4-.4-.7-1-.7-1.8v-2.4c0-.7.2-1.3.7-1.7.4-.4 1-.6 1.8-.6s1.4.2 1.8.6.7 1 .7 1.7v2.4c0 .7-.2 1.3-.7 1.8-.4.4-1.1.6-1.8.6s-1.3-.2-1.8-.6zm2.5-1.1c.2-.2.2-.4.2-.6v-2.6c0-.2-.1-.5-.2-.6-.2-.2-.4-.2-.6-.2s-.4.1-.6.2c-.2.2-.2.4-.2.6v2.6c0 .2.1.5.2.6.2.2.4.2.6.2.2.1.4 0 .6-.2zm4.8.1c0 .1.1.1 0 0h2.6c.1 0 .1.1.1.1v1.2c0 .1-.1.1-.1.1h-4.7c-.1 0-.1-.1-.1-.1v-1.1c0-.1 0-.1.1-.1l1.6-1.6.6-.6c.6-.6.9-1.1.9-1.4 0-.2-.1-.4-.2-.5-.2-.1-.4-.2-.6-.2s-.4.1-.5.2-.2.3-.2.5v.2c0 .1 0 .1-.1.1h-1.4c-.1 0-.1-.1-.1-.1v-.5c0-.4.1-.7.4-1 .2-.3.5-.5.9-.6.4-.2.8-.2 1.2-.2s.9.1 1.3.3c.3.2.6.4.8.7.4.6.4 1.3.1 1.9-.2.3-.4.6-.6.9-.2.2-.4.5-.6.7s-.6.5-1 .9zm5.7 0c0 .1 0 .1 0 0h2.6c.1 0 .1.1.1.1v1.2c0 .1-.1.1-.1.1h-4.7c-.1 0-.1-.1-.1-.1v-1.1c0-.1 0-.1.1-.1.4-.4.9-.9 1.6-1.6l.6-.6c.6-.6.9-1.1.9-1.4 0-.2-.1-.4-.2-.5-.2-.1-.4-.2-.6-.2s-.4.1-.5.2-.2.3-.2.5v.2.1h-.1-1.4c-.1 0-.1-.1-.1-.1v-.5c0-.4.1-.7.4-1 .2-.3.5-.5.9-.6.4-.2.8-.2 1.2-.2s.9.1 1.3.3c.3.2.6.4.8.7.4.6.4 1.3.1 1.9-.2.3-.4.6-.6.9-.2.2-.4.5-.6.7s-.6.5-1 .9zm-24.1-52.6c.1.1.1.1.1.2v1.9c0 .2-.1.3-.3.3h-2.9c-.1 0-.1 0-.1.1v9.4c0 .1 0 .2-.1.2-.1.1-.1.1-.2.1h-2.3c-.1 0-.2 0-.2-.1-.1-.1-.1-.1-.1-.2v-9.4c0-.1 0-.1-.1-.1h-2.8c-.2 0-.3-.1-.3-.3v-1.9c0-.1 0-.2.1-.2.1-.1.1-.1.2-.1h8.9c-.1 0 0 .1.1.1zm1.1 11.5c-.7-.6-1.3-1.4-1.5-2.3-.1-.5-.2-1-.2-1.6s.1-1.1.2-1.7c.2-.9.8-1.6 1.5-2.2.7-.5 1.6-.8 2.7-.8 1 0 1.9.3 2.6.8s1.3 1.3 1.5 2.1c.2.5.2 1.1.2 1.7 0 .5-.1 1-.2 1.5-.2.9-.7 1.8-1.5 2.3-.7.6-1.6.9-2.7.9-1 .2-1.9-.1-2.6-.7zm3.5-1.9c.2-.2.4-.6.5-.9s.1-.7.1-1 0-.7-.1-1-.2-.6-.5-.8c-.2-.2-.5-.3-.8-.3s-.6.1-.9.3c-.2.2-.4.5-.5.8s-.1.7-.1 1 0 .7.1 1 .3.6.5.9c.2.2.5.3.8.3.4 0 .7-.1.9-.3zm13.7-1.9c0 .8-.1 1.5-.4 2.2s-.7 1.3-1.3 1.8c-.6.4-1.3.7-2 .7-.9 0-1.6-.3-2-.8 0 0-.1-.1-.1-.1v.1 3.5c0 .2-.1.3-.3.3h-2.3c-.2 0-.3-.1-.3-.3v-11.6c0-.2.1-.3.3-.3h2.3c.2 0 .3.1.3.3v.4.1s.1 0 .1-.1c.4-.6 1.1-.9 2-.9.8 0 1.5.3 2.1.8s1.1 1.2 1.3 2c.2.6.3 1.2.3 1.9zm-3.2 0c0-.5-.1-1-.3-1.5-.2-.4-.6-.7-1.1-.7-.4 0-.8.2-1 .7-.2.4-.3.9-.3 1.4 0 .6.1 1.2.3 1.5.2.4.6.6 1 .6s.8-.2 1.1-.6c.2-.3.3-.8.3-1.4zm16.2.5c0 .6-.1 1.1-.3 1.7-.3.7-.8 1.3-1.5 1.7s-1.6.7-2.5.7-1.7-.2-2.4-.6-1.2-1-1.5-1.8c-.1-.3-.2-.6-.3-.9v-.1c0-.2.1-.3.3-.3h2.4c.2 0 .3.1.4.2 0 .1.1.2.1.2.1.2.2.4.4.5s.4.2.7.2c.2 0 .5-.1.7-.2s.3-.3.4-.5c.1-.3.2-.5.2-.8s0-.6-.2-.9c-.1-.2-.2-.4-.4-.5s-.5-.2-.7-.2c-.5 0-.8.2-1.1.5 0 .1-.1.1-.2.2-.1 0-.1.1-.2.1h-2.5c-.2 0-.3-.1-.3-.3v-6.9c0-.1 0-.2.1-.2.1-.1.1-.1.2-.1h7.5c.2 0 .3.1.3.3v1.9c0 .2-.1.3-.3.3h-4.8c-.1 0-.1 0-.1.1v2 .1h.1c.5-.3 1-.4 1.6-.4.8 0 1.5.2 2.2.6.6.4 1.1 1 1.4 1.7.2.6.3 1.2.3 1.7zm2.3 3.1c-.8-.8-1.2-1.8-1.2-3.1v-4.3c0-1.3.4-2.3 1.2-3s1.8-1.1 3.2-1.1c1.3 0 2.4.4 3.2 1.1s1.2 1.8 1.2 3v4.3c0 1.3-.4 2.3-1.2 3.1s-1.9 1.1-3.2 1.1c-1.4 0-2.5-.3-3.2-1.1zm4.2-1.8c.3-.3.4-.7.4-1.1v-4.6c0-.5-.1-.9-.4-1.1-.3-.3-.7-.4-1.1-.4s-.8.1-1 .4c-.3.3-.4.7-.4 1.1v4.6c0 .5.1.9.4 1.1.3.3.7.4 1 .4.4 0 .8-.1 1.1-.4z" fill="#252530"/><path d="m17.8 68.5h.9.1v.1 5.2.1s0 0-.1 0h-.9s-.1 0-.1-.1v-3.4l-.8 1.3s-.1.1-.1.1h-.5s-.1 0-.1-.1l-.8-1.3v3.4.1s0 0-.1 0h-.9s0 0-.1 0c0 0 0 0 0-.1v-5.2s0-.1.1-.1h.9s.1 0 .1.1l1.1 1.8 1.2-1.8c0-.1 0-.1.1-.1zm4.3 1.5c.2.1.5.3.6.5s.2.4.2.7v2.6.1s0 0-.1 0h-.9s0 0-.1 0c0 0 0 0 0-.1v-.3c-.2.3-.6.4-1 .4-.3 0-.7-.1-1-.3s-.4-.5-.4-.9.1-.7.4-.9.7-.3 1.2-.3h.8v-.2c0-.1 0-.3-.2-.4-.1-.1-.3-.2-.5-.1-.1 0-.3 0-.4.1-.1 0-.2.1-.2.2 0 0-.1.1-.1.1l-.9-.1c-.1 0-.1 0-.1-.1 0-.2.1-.4.3-.6s.4-.3.6-.4c.3-.1.5-.1.8-.1.4 0 .7 0 1 .1zm-.5 2.9c.1-.1.2-.3.2-.5v-.3h-.6c-.2 0-.4 0-.5.1s-.2.2-.2.4c0 .1 0 .2.1.3s.3.1.4.1c.2.1.4 0 .6-.1zm4.4-2.9s.1.1 0 .1l-.1.9c0 .1 0 .1-.1.1s-.2 0-.3 0-.1 0-.2 0c-.2 0-.3.1-.5.2-.1.1-.2.3-.2.5v2.1.1s0 0-.1 0h-.9s0 0-.1 0c0 0 0 0 0-.1v-3.9c0-.1 0-.1.1-.1h.9s.1 0 .1.1v.3c.2-.3.5-.5.8-.5.4.1.5.1.6.2zm.6 3.8v-5.2c0-.1 0-.1.1-.1h.9.1v.1 2.6l1-1.2s.1-.1.1-.1h1c.1 0 .1 0 .1.1v.1l-1 1.2v.1l1.1 2.4s0 .1-.1.1h-.9s-.1 0-.1-.1l-.7-1.8-.5.6v1.1.1s0 0-.1 0zm7.2-1.7c0 .1 0 .1 0 0-.1.1-.1.1 0 0l-2.5.1c0 .1 0 .2.1.3.1.3.4.4.8.4.3 0 .6-.1.8-.4 0 0 .1-.1.1 0l.6.5v.1.1c-.2.2-.4.4-.7.5s-.6.2-.9.2c-.4 0-.8-.1-1.1-.3s-.5-.5-.7-.8c-.1-.3-.2-.7-.2-1s0-.5.1-.7c.1-.3.3-.7.6-.9.7-.5 1.6-.4 2.3.1.3.3.5.7.6 1.2.1.2.1.4.1.6zm-2.4-.9c0 .1 0 .2-.1.2h1.3c0-.1 0-.2 0-.2 0-.1-.1-.3-.2-.4s-.3-.1-.4-.1c-.3.1-.6.2-.6.5zm5.2-.4h-.8v1.6c0 .1 0 .3.1.4s.2.1.3.1h.3s.1 0 .1.1v.7c0 .1 0 .1-.1.1-.2 0-.4 0-.5 0-.4 0-.7-.1-.9-.2s-.3-.4-.3-.8v-2.1h-.4s-.1 0-.1-.1v-.6s0 0 0-.1h.1.4v-.9s0 0 0-.1h.1.9.1v.1.9h.7.1v.1l-.1.8c0-.1 0-.1 0 0zm.8-1.5c-.2-.2-.2-.6 0-.9.2-.2.6-.2.9 0 .2.2.2.6 0 .8-.2.3-.6.3-.9.1zm-.1 4.5v-3.8s0 0 0-.1h.1.9.1v.1 3.8.1s0 0-.1 0l-1-.1c.1 0 .1 0 0 0zm5-3.6c.3.3.4.6.4 1v2.5.1s0 0-.1 0h-.9s0 0-.1 0c0 0 0 0 0-.1v-2.3c0-.2-.1-.4-.2-.5-.2-.3-.6-.3-.9 0-.1.1-.2.3-.2.5v2.3s0 .1-.1.1h-.9s0 0-.1 0c0 0 0 0 0-.1v-3.7s0 0 0-.1h.1.9.1v.1.3c.2-.3.6-.5.9-.4.5-.1.8.1 1.1.3zm3.6-.3h1 .1v.1 3.5c0 .7-.2 1.1-.6 1.4s-.9.4-1.5.4c-.2 0-.4 0-.6 0-.1 0-.1 0-.1-.1v-.8c0-.1 0-.1.1-.1h.5c.3 0 .5-.1.8-.2.2-.1.3-.4.3-.7-.2.2-.5.3-.8.3s-.6-.1-.9-.2c-.3-.2-.5-.5-.6-.8s-.1-.6-.1-.9 0-.7.1-1 .3-.6.5-.7c.3-.2.6-.3.9-.3s.7.1.9.4v-.3c-.1.1-.1.1 0 0zm-.1 1.9c0-.2 0-.3 0-.4s0-.2-.1-.2c0-.1-.1-.2-.2-.3s-.3-.1-.4-.1-.3 0-.4.1-.2.2-.2.3c-.1.2-.1.4-.1.6s0 .4.1.6c0 .1.1.3.2.3.1.1.3.1.4.1s.3 0 .4-.1.2-.2.2-.3c.1-.1.1-.3.1-.6zm6.6-3.1c.3.1.5.3.6.6s.2.6.2.9-.1.6-.2.9c-.1.2-.4.4-.6.6-.3.1-.6.2-.9.2h-1.1v2 .1s0 0-.1 0h-.9s-.1 0-.1-.1v-5.2s0 0 0-.1h.1 2.2c.2-.1.5-.1.8.1zm-.5 2c.1-.1.2-.3.2-.5s-.1-.4-.2-.5c-.2-.1-.4-.2-.6-.2h-1v1.4h1c.2 0 .4-.1.6-.2zm4.3-.7s.1.1 0 .1l-.2.9c0 .1 0 .1-.1.1s-.2 0-.3 0-.1 0-.2 0c-.2 0-.3.1-.5.2-.1.1-.2.3-.2.5v2.1.1s0 0-.1 0h-.9s0 0-.1 0c0 0 0 0 0-.1v-3.9s0-.1.1-.1h.9.1v.1.3c.2-.3.5-.5.8-.5.4.1.5.1.7.2zm1 3.6c-.3-.2-.5-.5-.6-.9-.1-.3-.1-.5-.1-.8s0-.5.1-.8c.1-.4.3-.7.6-.9s.7-.3 1.1-.3.8.1 1.1.3.5.5.6.9c.1.3.1.5.1.8s0 .5-.1.8c-.1.4-.3.7-.6.9s-.7.4-1.1.3c-.4 0-.7-.1-1.1-.3zm1.6-.8c.1-.1.2-.3.3-.4 0-.2.1-.4.1-.5 0-.2 0-.4-.1-.5 0-.2-.1-.3-.3-.4-.3-.2-.6-.2-.9 0-.1.1-.2.2-.2.4s-.1.4-.1.5c0 .2 0 .4.1.5 0 .2.1.3.3.4.1.1.3.2.4.2s.3-.1.4-.2zm4.5-4.3s.1 0 0 0h1 .1v.1 5.2.1s0 0-.1 0h-.9s0 0-.1 0c0 0 0 0 0-.1v-.3c-.2.3-.5.4-.9.4-.3 0-.7-.1-.9-.3-.3-.2-.5-.5-.6-.8s-.1-.6-.1-.9 0-.6.1-.9.3-.6.6-.8.6-.3.9-.3.6.1.9.4zm0 3.4c0-.3 0-.6-.2-.8-.1-.2-.3-.3-.5-.3s-.4.1-.5.3-.2.5-.2.8 0 .5.2.8c.1.2.3.3.6.3.2 0 .4-.1.5-.3.1-.3.1-.6.1-.8zm4.2-2s.1 0 0 0h1 .1v.1 3.7.1s0 0-.1 0h-.9s0 0-.1 0c0 0 0 0 0-.1v-.3c-.2.3-.5.4-.9.4s-.7-.1-1-.4-.4-.6-.4-1v-2.4s0 0 0-.1h.1.9.1v.1 2.3c0 .2 0 .4.2.5.1.1.3.2.5.2s.3-.1.4-.2.2-.3.2-.4l-.1-2.5c0 .1 0 .1 0 0zm2.5 3.7c-.3-.2-.5-.5-.6-.8s-.1-.6-.1-.9 0-.6.1-.9.3-.6.6-.8.7-.3 1.1-.3.8.1 1.1.3.5.5.6.8c0 .1.1.2.1.3s0 .1-.1.1l-.9.1s-.1 0-.1-.1v-.1c0-.1-.1-.3-.2-.3-.1-.1-.3-.1-.4-.1s-.3 0-.4.1-.2.2-.2.3c-.1.2-.1.4-.1.6s0 .4.1.6c.1.3.3.5.7.5.1 0 .3 0 .4-.1s.2-.2.2-.3c0-.1 0-.1.1-.1l.9.1s.1 0 .1.1v.2c-.1.3-.3.6-.6.8s-.7.3-1.1.3c-.6-.1-1-.2-1.3-.4zm5.7-2.8h-.8v1.6c0 .1 0 .3.1.4s.2.1.3.1h.3.1v.1.7c0 .1 0 .1-.1.1-.2 0-.4 0-.5 0-.4 0-.7-.1-.9-.2s-.3-.4-.3-.8v-2.1h-.4s0 0-.1 0c0 0 0 0 0-.1v-.6s0 0 0-.1h.1.4v-.9s0 0 0-.1h.1.9.1v.1.9h.7.1v.1l-.1.8c0-.1 0-.1 0 0zm1.4 3c-.2-.1-.4-.2-.6-.4-.1-.2-.2-.4-.2-.6v-.1c0-.1 0-.1.1-.1h.8s.1 0 .1.1c0 .1.1.2.2.3s.3.1.5.1c.1 0 .3 0 .4-.1s.2-.2.2-.3 0-.2-.1-.2c-.1-.1-.3-.1-.5-.1s-.4-.1-.6-.2c-.3-.1-.6-.2-.8-.4s-.3-.4-.3-.7c0-.4.2-.7.4-.9.3-.2.8-.4 1.2-.3.3 0 .6 0 .9.2.2.1.4.2.6.4.1.2.2.4.2.6v.1s0 0-.1 0h-.8c-.1 0-.1 0-.1-.1s-.1-.2-.2-.3c-.3-.1-.6-.1-.9 0-.1 0-.2.1-.2.3 0 .1.1.2.2.2.2.1.3.1.5.2h.2c.1 0 .1 0 .2.1.3.1.6.2.9.4.2.2.3.5.3.7 0 .4-.2.7-.4.9-.3.2-.7.3-1.2.3-.4 0-.7 0-.9-.1z" fill="#fff"/></svg>